PathFileType	4	(X/Y/Z)	/home/abdul/Desktop/myosuite/custom_workspace/IK/output/S1_12_2.trc
DataRate	CameraRate	NumFrames	NumMarkers	Units	OrigDataRate	OrigDataStartFrame	OrigNumFrames
200.0	200.0	39	3	mm	200.0	1381	1578
Frame#	Time	V_Shoulder			V_Elbow			V_Wrist		
		X1	Y1	Z1	X2	Y2	Z2	X3	Y3	Z3

1381	6.9	-214.73018703970442	572.3068546858709	357.9308897763644	-395.2206578096919	475.1539061440054	44.48884740906742	-358.8732051210729	205.61322192742853	65.59450170745248
1382	6.905	-214.74897440056716	572.2589935888391	358.2076441909832	-395.91347226190123	474.52934073157815	45.53259766208717	-359.47987892027004	205.00244850320723	66.32076216730269
1383	6.91	-214.7716603740491	572.1956922349283	358.48546468100716	-396.615282841419	473.8821165371497	46.58709377844906	-360.1084105093021	204.36672291135864	67.05893374164418
1384	6.915	-214.79835930333903	572.1170980653133	358.7639915444907	-397.3251474665043	473.21261466278537	47.651072446791545	-360.7584367410327	203.70630669564287	67.80828881276332
1385	6.92	-214.82917925158839	572.0233745854406	359.0428640416232	-398.04212104604306	472.5212489249358	48.723253055100685	-361.4295659992517	203.02149809117756	68.56806812627465
1386	6.925	-214.86422180984053	571.9147011864455	359.32172100472394	-398.7652573731366	471.8084658196102	49.802339679176846	-362.1213785899307	202.3126324703623	69.33748145096135
1387	6.93	-214.90358191701637	571.7912729455655	359.60020145100026	-399.4936110000617	471.07474441793596	50.8870231188273	-362.8334271662643	201.58008270821097	70.11570835534052
1388	6.935	-214.9473476921576	571.6533004061854	359.8779451968187	-400.22623909027163	470.3205961923706	51.97598297853402	-363.5652371876909	200.82425946512862	70.90189910136715
1389	6.94	-214.99560027910283	571.5010093381397	360.1545934722306	-400.962203243227	469.54656477400397	53.06788978916987	-364.3163074131081	200.0456113853761	71.69517565518873
1390	6.945	-215.04841370374518	571.3346404788861	360.4297895344839	-401.70057128797515	468.75322564154214	54.16140716716291	-365.08611042851055	199.2446252096717	72.49463281435827
1391	6.95	-215.10585474399625	571.1544492561425	360.7031792792477	-402.44041904153585	467.94118574271033	55.25519400733948	-365.8740932092966	198.42182580058596	73.29933945040402
1392	6.955	-215.16798281255583	570.9607054925681	360.9744118482691	-403.1808320283003	467.1110830489458	56.34790670551087	-366.6796777174993	197.57777607959116	74.10833986514552
1393	6.96	-215.23484985256528	570.7536930930386	361.24314023218386	-403.9209071568059	466.26358604436894	57.43820140670866	-367.502261534209	196.71307687483068	74.92065525863734
1394	6.965	-215.30650024619965	570.53370971505	361.5090218671982	-404.6597543504174	465.399393150132	58.524736274818316	-368.34121852745614	195.8283666788754	75.73528530611824
1395	6.97	-215.3829707362336	570.3010664227576	361.7717192243627	-405.3964981286124	464.5192320853344	59.60617377921231	-369.19589955582546	194.92432131593281	76.55120984084564
1396	6.975	-215.46429036059473	570.0560873251281	362.0309003901653	-406.13027913575297	463.6238591657765	60.681182993841645	-370.0656332080631	194.0016535181735	77.36739063920442
1397	6.98	-215.55048039990027	569.799109198666	362.2862396371738	-406.86025561440596	462.71405854189237	61.748441904110315	-370.9497265789255	193.06111241103184	78.18277330399938
1398	6.985	-215.6415543379554	569.5304810951385	362.53741798346954	-407.58560482046516	461.79064137725584	62.80663971673098	-371.8474660814968	192.1034829075304	78.99628924137261
1399	6.99	-215.73751783517204	569.2505639347114	362.7841237396249	-408.30552437752016	460.85444496909736	63.85447916764253	-372.7581182961725	191.12958501186597	79.8068577263316
1400	6.995	-215.8383687148531	568.9597300848736	363.02605304198977	-409.0192335681155	459.9063318123059	64.89067882296256	-373.68093085646365	190.1402730326815	80.61338805143626
1401	7.0	-215.94409696226958	568.6583629255147	363.2629103710694	-409.7259745597397	458.94718860840743	65.91397536785034	-374.61513337173005	189.13643470663214	81.41478175277015
1402	7.005	-216.054684736445	568.3468564004951	363.4944090537947	-410.42501356358594	457.97792522103	66.9231258780699	-375.55993838688545	188.11899023303573	82.20993490691947
1403	7.01	-216.17010639454483	568.0256145560371	363.7202717485088	-411.115641924323	456.99947357936844	67.91691006896815	-376.51454237904795	187.08889122057815	82.99774049230116
1404	7.015	-216.2903285287566	567.6950510662473	363.94023091151513	-411.7971771393201	456.0127865311623	68.8941325165221	-377.47812679102105	186.04711954722382	83.77709080782166
1405	7.02	-216.41531001553184	567.3555887460724	364.1540292440634	-412.4689638059623	455.01883664669674	69.85362484505961	-378.4498591013944	184.99468613465953	84.54687994151226
1406	7.025	-216.54500207704845	567.0076590519833	364.36142011867696	-413.1303744958915	454.01861497532593	70.79424787622565	-379.4288939309423	183.9326296387789	85.3060062814757
1407	7.03	-216.67934835473883	566.6517015706837	364.56216798376	-413.78081055520215	453.01312975601127	71.71489373374555	-380.4143741848735	182.8620150578925	86.05337506119511
1408	7.035	-216.818284994716	566.2881634961337	364.75604874545934	-414.41970282980753	452.0034050833559	72.61448789853341	-381.40543223034666	181.7839322605295	86.78790093100015
1409	7.04	-216.96174074491816	565.9174990951942	364.94285012579456	-415.04651231537764	450.99047953061086	73.49199120870533	-382.40119110851833	180.69949443487718	87.50851054725885
1410	7.045	-217.10963706377834	565.5401691622013	365.1223719961134	-415.6607307314307	449.9754047311246	74.34640179908672	-383.40076578022433	179.60983646208757	88.21414517066725
1411	7.05	-217.26188824021415	565.156640462803	365.29442668497745	-416.2618810193306	448.9592439197106	75.1767569748476	-384.40326440421916	178.51611321586662	88.90376326484571
1412	7.055	-217.4184015247184	564.767385167402	365.45883925962886	-416.8495177641123	447.9430704354196	75.98213501396387	-385.40778964670983	177.41949779094836	89.57634308631904
1413	7.06	-217.57907727131968	564.3728802745818	365.615447780247	-417.42322754021416	446.9279661872206	76.76165689328307	-386.41344002072174	176.32117966324958	90.23088525686146
1414	7.065	-217.74380909016747	563.9736070249171	365.76410352625686	-417.9826291813518	445.9150200841274	77.51448793307236	-387.4193112536242	175.22236278469308	90.86641530912556
1415	7.07	-217.91248401048384	563.5700503056065	365.90467119401205	-418.5273739749109	444.9053264313477	78.23983935504427	-388.42449768092274	174.1242636158882	91.48198619644927
1416	7.075	-218.08498265360913	563.1626980464032	366.0370290652407	-419.05714578137645	443.8999832940897	78.93696974899152	-389.42809366420244	173.02810910005672	92.07668075774573
1417	7.08	-218.26117941585633	562.7520406073592	366.16106914570724	-419.5716610794423	442.9000908307315	79.605186443317	-390.42919503087	171.9351345817986	92.64961412843053
1418	7.085	-218.44094266087237	562.3385701589489	366.27669727361416	-420.0706689375718	441.9067495971446	80.24384677491824	-391.42690053310866	170.8465816744996	93.1999360884272
1419	7.09	-218.6241349211924	561.9227800551818	366.38383319734265	-420.5539509128898	440.9210588240634	80.85235925407767	-392.4203133232179	169.76369608039374	93.72683333841758
